<svg  viewBox="0 0 155 155" fill="none" xmlns="http://www.w3.org/2000/svg">
    <path fill-rule="evenodd" clip-rule="evenodd" d="M14.5312 77.5C14.5312 60.7996 21.1654 44.7833 32.9744 32.9744C44.7833 21.1654 60.7996 14.5312 77.5 14.5312C94.2004 14.5312 110.217 21.1654 122.026 32.9744C133.835 44.7833 140.469 60.7996 140.469 77.5C140.469 94.2004 133.835 110.217 122.026 122.026C110.217 133.835 94.2004 140.469 77.5 140.469C60.7996 140.469 44.7833 133.835 32.9744 122.026C21.1654 110.217 14.5312 94.2004 14.5312 77.5ZM77.5 0C56.9457 0 37.2333 8.16516 22.6993 22.6993C8.16516 37.2333 0 56.9457 0 77.5C0 98.054 8.16516 117.767 22.6993 132.301C37.2333 146.834 56.9457 155 77.5 155C98.054 155 117.767 146.834 132.301 132.301C146.834 117.767 155 98.054 155 77.5C155 56.9457 146.834 37.2333 132.301 22.6993C117.767 8.16516 98.054 0 77.5 0ZM48.4375 77.5C51.0068 77.5 53.4708 76.4793 55.2876 74.6626C57.1043 72.8458 58.125 70.3818 58.125 67.8125C58.125 65.2432 57.1043 62.7792 55.2876 60.9624C53.4708 59.1457 51.0068 58.125 48.4375 58.125C45.8682 58.125 43.4042 59.1457 41.5874 60.9624C39.7707 62.7792 38.75 65.2432 38.75 67.8125C38.75 70.3818 39.7707 72.8458 41.5874 74.6626C43.4042 76.4793 45.8682 77.5 48.4375 77.5ZM116.25 67.8125C116.25 70.3818 115.229 72.8458 113.413 74.6626C111.596 76.4793 109.132 77.5 106.562 77.5C103.993 77.5 101.529 76.4793 99.7125 74.6626C97.8961 72.8458 96.875 70.3818 96.875 67.8125C96.875 65.2432 97.8961 62.7792 99.7125 60.9624C101.529 59.1457 103.993 58.125 106.562 58.125C109.132 58.125 111.596 59.1457 113.413 60.9624C115.229 62.7792 116.25 65.2432 116.25 67.8125ZM51.5375 93.3487C53.1005 92.2543 55.0312 91.8187 56.9127 92.136C58.7942 92.4531 60.4754 93.4977 61.5931 95.0441L61.6609 95.1312C62.6573 96.2739 63.7969 97.2828 65.0516 98.1344C67.6091 99.8587 71.6681 101.719 77.5 101.719C83.3319 101.719 87.3812 99.8587 89.9484 98.1247C91.2031 97.2732 92.3427 96.2642 93.3391 95.1216L93.4069 95.0441C94.5245 93.4742 96.22 92.4126 98.1198 92.093C100.021 91.7732 101.971 92.2214 103.54 93.3391C105.109 94.4567 106.171 96.1522 106.491 98.052C106.811 99.9527 106.363 101.903 105.245 103.472L99.2969 99.2969C105.245 103.463 105.245 103.472 105.235 103.472V103.482L105.226 103.501L105.206 103.53L105.158 103.598L105.022 103.782C104.478 104.512 103.882 105.2 103.24 105.846C101.683 107.458 99.9624 108.902 98.1053 110.157C92.0043 114.21 84.8244 116.333 77.5 116.25C68.3356 116.25 61.4963 113.266 56.9044 110.147C54.4747 108.503 52.2811 106.534 50.3847 104.296C50.2462 104.127 50.1105 103.956 49.9778 103.782L49.8422 103.588L49.7937 103.53L49.7744 103.501V103.482H49.7647L55.7031 99.2969L49.755 103.463C48.6502 101.885 48.2164 99.9353 48.5488 98.0385C48.8813 96.1425 49.9526 94.4557 51.5278 93.3487H51.5375Z" fill="white"/>
</svg>
